<svg version="1.2" xmlns="http://www.w3.org/2000/svg" viewBox="0 0 25 25" width="25" height="25">
	<style>
		.s0 { fill: #3a92de } 
	</style>
	<path class="s0" d="m18.35 11.2c-0.44 0-0.8-0.37-0.8-0.8 0-0.39-0.38-1.19-1.03-1.89-0.63-0.68-1.33-1.07-1.92-1.07-0.44 0-0.8-0.37-0.8-0.8 0-0.44 0.37-0.81 0.8-0.81 1.05 0 2.14 0.57 3.1 1.58 0.89 0.94 1.47 2.12 1.47 2.98 0 0.44-0.37 0.81-0.82 0.81z"/>
	<path class="s0" d="m22.11 11.2c-0.44 0-0.8-0.37-0.8-0.8 0-3.7-3.01-6.7-6.7-6.7-0.44 0-0.8-0.37-0.8-0.8 0-0.44 0.36-0.82 0.79-0.82 4.59 0 8.32 3.73 8.32 8.32 0 0.43-0.37 0.8-0.81 0.8z"/>
	<path class="s0" d="m12.28 14.8l-3.41 3.41q-0.56-0.5-1.09-1.03-1.61-1.63-2.91-3.41-1.28-1.78-2.04-3.55-0.75-1.78-0.75-3.41 0-1.07 0.38-2.01 0.37-0.95 1.2-1.74 1-0.98 2.16-0.98 0.45 0 0.85 0.19 0.41 0.18 0.69 0.58l2.42 3.41q0.28 0.39 0.42 0.73 0.14 0.33 0.14 0.64 0 0.37-0.22 0.73-0.2 0.37-0.58 0.74l-0.79 0.83q-0.17 0.17-0.17 0.41 0 0.12 0.03 0.24 0.05 0.12 0.09 0.21 0.28 0.52 0.97 1.34 0.7 0.81 1.51 1.64 0.56 0.56 1.1 1.03z"/>
	<path class="s0" d="m22.89 19.09q0 0.45-0.16 0.89-0.05 0.12-0.11 0.25-0.26 0.56-0.7 1.06-0.76 0.84-1.71 1.23-0.02 0.01-0.03 0.01-0.92 0.38-2 0.39-1.6 0-3.4-0.76-1.8-0.77-3.58-2.07-0.62-0.44-1.2-0.92l3.41-3.41q0.44 0.33 0.77 0.5 0.08 0.03 0.18 0.08 0.13 0.05 0.26 0.05 0.27-0.01 0.43-0.18l0.79-0.78q0.39-0.4 0.75-0.59 0.36-0.22 0.74-0.21 0.3-0.01 0.64 0.13 0.34 0.14 0.73 0.41l3.45 2.44q0.4 0.28 0.57 0.67 0.16 0.38 0.17 0.81z"/>
</svg>