<svg version="1.2" xmlns="http://www.w3.org/2000/svg" viewBox="0 0 52 46" width="25" height="25">
	<style>
		.s0 { fill: #00ff97 } 
	</style>
	<path class="s0" d="m31.7 24.6l-3.22 3.24c-1.31 1.31-3.62 1.34-4.95 0l-3.23-3.24-11.59 11.63q0.65 0.31 1.41 0.32h31.76q0.77-0.01 1.42-0.32z"/>
	<path class="s0" d="m41.88 9.45h-31.76q-0.76 0.01-1.41 0.32l12.38 12.43q0 0 0.01 0 0 0 0 0l4.02 4.04c0.43 0.43 1.33 0.43 1.76 0l4.02-4.04q0 0 0.01 0 0 0 0 0l12.39-12.43q-0.65-0.31-1.42-0.32z"/>
	<path class="s0" d="m7.09 11.35q-0.35 0.68-0.36 1.49v20.32q0.01 0.81 0.36 1.49l11.61-11.65z"/>
	<path class="s0" d="m44.91 11.35l-11.61 11.65 11.61 11.65q0.35-0.68 0.36-1.49v-20.32q-0.01-0.81-0.36-1.49z"/>
</svg>