<svg version="1.2" xmlns="http://www.w3.org/2000/svg" viewBox="0 0 25 25" width="25" height="25">
	<style>
		.s0 { fill: #3a92de } 
	</style>
	<path class="s0" d="m15.24 13.27l-1.55 1.56c-0.63 0.63-1.74 0.64-2.38 0l-1.55-1.56-5.57 5.59q0.31 0.15 0.68 0.15h15.26q0.37 0 0.69-0.15z"/>
	<path class="s0" d="m20.13 5.99h-15.26q-0.37 0-0.68 0.15l5.95 5.98q0 0 0 0l1.94 1.94c0.2 0.2 0.64 0.2 0.84 0l1.94-1.94q0 0 0 0l5.96-5.98q-0.32-0.15-0.69-0.15z"/>
	<path class="s0" d="m3.41 6.9q-0.17 0.33-0.17 0.72v9.76q0 0.39 0.17 0.72l5.58-5.6z"/>
	<path class="s0" d="m21.59 6.9l-5.58 5.6 5.58 5.6q0.17-0.33 0.17-0.72v-9.76q0-0.39-0.17-0.72z"/>
</svg>